<svg xmlns="http://www.w3.org/2000/svg" width="640" height="640" viewBox="0 0 640 640" role="img" aria-label="Throuple Tea Community mark">
<defs>
<linearGradient id="g" x1="100" x2="560" y1="90" y2="560" gradientUnits="userSpaceOnUse">
<stop stop-color="#ff3fb4"/>
<stop offset=".52" stop-color="#ff8a3d"/>
<stop offset="1" stop-color="#38e6d8"/>
</linearGradient>
<filter id="s" x="-40%" y="-40%" width="180%" height="180%">
<feDropShadow dx="0" dy="28" stdDeviation="28" flood-color="#000" flood-opacity=".45"/>
<feDropShadow dx="0" dy="0" stdDeviation="22" flood-color="#ff3fb4" flood-opacity=".38"/>
</filter>
</defs>
<rect width="640" height="640" rx="160" fill="#080713"/>
<circle cx="320" cy="320" r="235" fill="url(#g)" opacity=".23"/>
<path filter="url(#s)" d="M189 238c0-38 31-69 69-69h124c38 0 69 31 69 69v66c0 72-58 130-130 130h-2c-72 0-130-58-130-130v-66Z" fill="url(#g)"/>
<path d="M451 261h28c37 0 67 30 67 67s-30 67-67 67h-48" fill="none" stroke="#fff7fb" stroke-width="34" stroke-linecap="round"/>
<path d="M237 242c21-34 63-34 84 0 21-34 63-34 84 0" fill="none" stroke="#fff7fb" stroke-width="25" stroke-linecap="round"/>
<path d="M220 474h205" stroke="#fff7fb" stroke-width="31" stroke-linecap="round"/>
<path d="M262 116c-24 30 23 47-3 77M338 102c-27 34 25 53-4 90M413 118c-22 29 20 44-2 71" stroke="#fff7fb" stroke-opacity=".85" stroke-width="18" stroke-linecap="round"/>
</svg>
